<svg xmlns="http://www.w3.org/2000/svg" viewBox="0 0 100 100"><defs><filter id="b" width="200%" height="200%" x="-50%" y="-50%"><feGaussianBlur result="coloredBlur" stdDeviation="3"/><feMerge><feMergeNode in="coloredBlur"/><feMergeNode in="SourceGraphic"/></feMerge></filter><filter id="d" width="200%" height="200%" x="-50%" y="-50%"><feDropShadow dx="2" dy="4" flood-color="#ff8c00" flood-opacity="0.3" stdDeviation="3"/></filter><radialGradient id="c" cx="50%" cy="30%" r="70%"><stop offset="0%" style="stop-color:#ffdc00;stop-opacity:1"/><stop offset="40%" style="stop-color:gold;stop-opacity:1"/><stop offset="70%" style="stop-color:orange;stop-opacity:1"/><stop offset="100%" style="stop-color:#ff8c00;stop-opacity:1"/></radialGradient><linearGradient id="a" x1="0%" x2="100%" y1="0%" y2="100%"><stop offset="0%" style="stop-color:gold;stop-opacity:.8"/><stop offset="50%" style="stop-color:orange;stop-opacity:.6"/><stop offset="100%" style="stop-color:#ff8c00;stop-opacity:.8"/></linearGradient></defs><circle cx="50" cy="50" r="45" fill="none" stroke="url(#a)" stroke-width="2" filter="url(#b)" opacity="0.6"><animate attributeName="r" dur="3s" repeatCount="indefinite" values="43;47;43"/><animate attributeName="opacity" dur="3s" repeatCount="indefinite" values="0.4;0.8;0.4"/></circle><circle cx="50" cy="50" r="35" fill="none" stroke="url(#c)" stroke-width="1.5" opacity="0.8"><animate attributeName="stroke-dasharray" dur="4s" repeatCount="indefinite" values="0,220;110,110;220,0"/></circle><g filter="url(#d)" transform="translate(50 50)"><path fill="url(#c)" stroke="#ff8c00" stroke-width="0.5" d="M-15-5V5h30V-5Z"/><path fill="url(#c)" stroke="#ff8c00" stroke-width="0.5" d="m-15-5 5-10 5 7 5-10L5-8l5-7 5 10"/><circle cy="-12" r="3" fill="#ffdc00" stroke="orange" stroke-width="0.5"><animate attributeName="r" dur="2s" repeatCount="indefinite" values="2.5;3.5;2.5"/><animate attributeName="fill" dur="2s" repeatCount="indefinite" values="#FFDC00;#FFE55C;#FFDC00"/></circle><circle cx="-8" cy="-10" r="2" fill="orange" opacity="0.9"><animate attributeName="opacity" dur="2.5s" repeatCount="indefinite" values="0.7;1;0.7"/></circle><circle cx="8" cy="-10" r="2" fill="orange" opacity="0.9"><animate attributeName="opacity" dur="2.5s" repeatCount="indefinite" values="0.7;1;0.7"/></circle><path stroke="gold" d="m-12-12 4 4m20-4L8-8" opacity="0.8"/><path fill="orange" d="M-12 2h2v6h-2z" opacity="0.7"/><path fill="gold" d="M-2 2h4v6h-4z" opacity="0.8"/><path fill="orange" d="M10 2h2v6h-2z" opacity="0.7"/></g><g filter="url(#b)" opacity="0.6"><g stroke="gold" transform="translate(50 15)"><circle r="4" fill="none"/><path d="M0-4v8m-4-4h8"/></g><g stroke="orange" transform="translate(50 85)"><circle cy="-2" r="3" fill="none"/><path d="M0 1v5m-3-3h6"/></g><g transform="translate(15 50)"><path fill="#ff8c00" d="M-3 0q3-3 6 0-3 2-6 0" opacity="0.8"/><circle cy="-1" r="1" fill="gold"/></g><path stroke="orange" d="M85 46v8"/><path fill="none" stroke="gold" stroke-width="0.8" d="m83 48 4 4m0-4-4 4"/></g><g stroke-width="0.5" opacity="0.3"><path stroke="gold" d="M50 10v10"><animate attributeName="opacity" dur="2s" repeatCount="indefinite" values="0.2;0.6;0.2"/></path><path stroke="gold" d="M50 80v10"><animate attributeName="opacity" begin="0.5s" dur="2s" repeatCount="indefinite" values="0.2;0.6;0.2"/></path><path stroke="orange" d="M10 50h10"><animate attributeName="opacity" begin="1s" dur="2s" repeatCount="indefinite" values="0.2;0.6;0.2"/></path><path stroke="orange" d="M80 50h10"><animate attributeName="opacity" begin="1.5s" dur="2s" repeatCount="indefinite" values="0.2;0.6;0.2"/></path></g><circle cx="25" cy="25" r="1" fill="gold" opacity="0.8"><animate attributeName="opacity" dur="3s" repeatCount="indefinite" values="0;1;0"/><animate attributeName="r" dur="3s" repeatCount="indefinite" values="0.5;1.5;0.5"/></circle><circle cx="75" cy="25" r="1" fill="orange" opacity="0.8"><animate attributeName="opacity" begin="1s" dur="3s" repeatCount="indefinite" values="0;1;0"/><animate attributeName="r" begin="1s" dur="3s" repeatCount="indefinite" values="0.5;1.5;0.5"/></circle><circle cx="25" cy="75" r="1" fill="#ff8c00" opacity="0.8"><animate attributeName="opacity" begin="2s" dur="3s" repeatCount="indefinite" values="0;1;0"/><animate attributeName="r" begin="2s" dur="3s" repeatCount="indefinite" values="0.5;1.5;0.5"/></circle><circle cx="75" cy="75" r="1" fill="gold" opacity="0.8"><animate attributeName="opacity" begin="0.5s" dur="3s" repeatCount="indefinite" values="0;1;0"/><animate attributeName="r" begin="0.5s" dur="3s" repeatCount="indefinite" values="0.5;1.5;0.5"/></circle></svg>