<svg xmlns="http://www.w3.org/2000/svg" viewBox="0 0 400 400"><defs><radialGradient id="f" cx="50%" cy="50%" r="50%"><stop offset="0%" style="stop-color:#ffdc00;stop-opacity:1"/><stop offset="30%" style="stop-color:gold;stop-opacity:.8"/><stop offset="60%" style="stop-color:orange;stop-opacity:.6"/><stop offset="100%" style="stop-color:#ff8c00;stop-opacity:.4"/></radialGradient><linearGradient id="c" x1="0%" x2="100%" y1="0%" y2="100%"><stop offset="0%" style="stop-color:gold;stop-opacity:.9"/><stop offset="50%" style="stop-color:orange;stop-opacity:.7"/><stop offset="100%" style="stop-color:#ff8c00;stop-opacity:.9"/></linearGradient><pattern id="a" width="40" height="40" x="0" y="0" patternUnits="userSpaceOnUse"><circle cx="20" cy="20" r="2" fill="gold" opacity="0.3"/><path fill="none" stroke="orange" stroke-width="0.5" d="m20 10 5 10-5 10-5-10Z" opacity="0.4"/></pattern><filter id="b" width="200%" height="200%" x="-50%" y="-50%"><feGaussianBlur result="coloredBlur" stdDeviation="2"/><feMerge><feMergeNode in="coloredBlur"/><feMergeNode in="SourceGraphic"/></feMerge></filter></defs><path fill="url(#a)" d="M0 0h400v400H0z" opacity="0.2"/><g filter="url(#b)" transform="translate(200 200)"><circle r="180" fill="none" stroke="url(#c)" stroke-width="2" opacity="0.4"><animate attributeName="r" dur="8s" repeatCount="indefinite" values="178;182;178"/></circle><circle r="160" fill="none" stroke="gold" stroke-width="1.5" opacity="0.5"/><circle r="140" fill="none" stroke="orange" opacity="0.6"/><g opacity="0.7"><path id="d" fill="url(#c)" stroke="#ff8c00" stroke-width="0.5" d="M0-130q-8 10 0 20 8-10 0-20"/><use href="#d" transform="rotate(22.5)"/><use href="#d" transform="rotate(45)"/><use href="#d" transform="rotate(67.5)"/><use href="#d" transform="rotate(90)"/><use href="#d" transform="rotate(112.5)"/><use href="#d" transform="rotate(135)"/><use href="#d" transform="rotate(157.5)"/><use href="#d" transform="rotate(180)"/><use href="#d" transform="rotate(202.5)"/><use href="#d" transform="rotate(225)"/><use href="#d" transform="rotate(247.5)"/><use href="#d" transform="rotate(270)"/><use href="#d" transform="rotate(292.5)"/><use href="#d" transform="rotate(315)"/><use href="#d" transform="rotate(337.5)"/></g><g opacity="0.8"><path id="e" fill="gold" stroke="orange" stroke-width="0.5" d="M0-100q-6 8 0 16 6-8 0-16"/><use href="#e" transform="rotate(45)"/><use href="#e" transform="rotate(90)"/><use href="#e" transform="rotate(135)"/><use href="#e" transform="rotate(180)"/><use href="#e" transform="rotate(225)"/><use href="#e" transform="rotate(270)"/><use href="#e" transform="rotate(315)"/></g><g fill="none" stroke-width="1.5" opacity="0.9"><g stroke="gold"><path d="m0-60-52 90H52Z"><animate attributeName="stroke-opacity" dur="4s" repeatCount="indefinite" values="0.6;1;0.6"/></path><path d="m0-40-35 60h70Z"><animate attributeName="stroke-opacity" begin="1s" dur="4s" repeatCount="indefinite" values="0.6;1;0.6"/></path><path d="m0-20-17 30h34Z"><animate attributeName="stroke-opacity" begin="2s" dur="4s" repeatCount="indefinite" values="0.6;1;0.6"/></path></g><g stroke="orange"><path d="m0 60-52-90H52Z"><animate attributeName="stroke-opacity" begin="0.5s" dur="4s" repeatCount="indefinite" values="0.6;1;0.6"/></path><path d="m0 40-35-60h70Z"><animate attributeName="stroke-opacity" begin="1.5s" dur="4s" repeatCount="indefinite" values="0.6;1;0.6"/></path><path d="m0 20-17-30h34Z"><animate attributeName="stroke-opacity" begin="2.5s" dur="4s" repeatCount="indefinite" values="0.6;1;0.6"/></path></g></g><circle r="6" fill="url(#f)"><animate attributeName="r" dur="3s" repeatCount="indefinite" values="4;8;4"/><animate attributeName="fill-opacity" dur="3s" repeatCount="indefinite" values="0.8;1;0.8"/></circle><circle r="15" fill="none" stroke="#ffdc00" opacity="0.8"><animate attributeName="r" dur="5s" repeatCount="indefinite" values="14;16;14"/></circle><g stroke="gold" stroke-width="2" opacity="0.7"><path fill="none" d="M-8-75H8v10H-8Z"/><path stroke-width="1" d="M0-75v-10"/><path fill="none" d="M75-8V8H65V-8Z"/><path stroke-width="1" d="M75 0h10"/><path fill="none" d="M-8 75H8V65H-8Z"/><path stroke-width="1" d="M0 75v10"/><path fill="none" d="M-75-8V8h10V-8Z"/><path stroke-width="1" d="M-75 0h-10"/></g><g fill="gold" opacity="0.6"><g stroke="gold" transform="translate(0 -120)"><circle r="4" fill="none"/><path d="M0-4v-4m-3 2h6M0 4v4"/></g><g stroke="orange" transform="translate(120)"><circle cy="-2" r="4" fill="none"/><path d="M0 2v4m-3-2h6"/></g><g stroke="#ff8c00" transform="translate(0 120)"><circle r="4" fill="none"/><path d="m3-3 3-3M3-6l3 3"/></g><path fill="none" stroke="gold" d="M-122-4h4v6m-3 0v2m-2-4h4"/></g><path stroke="gold" stroke-width="0.5" d="M0-85v-35M85 0h35M0 85v35M-85 0h-35m60-60-60-60M60-60l60-60M60 60l60 60M-60 60l-60 60" opacity="0.3"/></g><g fill="orange" opacity="0.4"><g transform="translate(50 50)"><path fill="gold" d="M-10 0Q0-8 10 0 0 6-10 0"/><circle cy="-2" r="3" fill="#ff8c00"/><circle cy="-2" r="1" fill="gold"/></g><g stroke="gold" stroke-width="1.5" transform="translate(350 50)"><circle cy="-2" r="6" fill="none"/><path d="M0 4v8m-4-4h8"/></g><g transform="translate(50 350)"><path stroke="orange" stroke-width="1.5" d="M0-8V8"/><path fill="none" stroke="gold" d="m-4-4 8 8m0-8-8 8"/><ellipse cx="-4" cy="-6" fill="none" stroke="gold" stroke-width="0.8" rx="3" ry="1.5"/><ellipse cx="4" cy="-6" fill="none" stroke="gold" stroke-width="0.8" rx="3" ry="1.5"/></g><g transform="translate(350 350)"><circle r="8" fill="none" stroke="#ff8c00" stroke-width="1.5"/><path fill="gold" d="m6 4 2-2v4z"/></g></g></svg>