<svg width="100" height="100" viewBox="0 0 100 100" xmlns="http://www.w3.org/2000/svg">
  <defs>
    <!-- Golden gradient definitions -->
    <radialGradient id="goldenGradient" cx="50%" cy="30%" r="70%">
      <stop offset="0%" style="stop-color:#FFDC00;stop-opacity:1" />
      <stop offset="40%" style="stop-color:#FFD700;stop-opacity:1" />
      <stop offset="70%" style="stop-color:#FFA500;stop-opacity:1" />
      <stop offset="100%" style="stop-color:#FF8C00;stop-opacity:1" />
    </radialGradient>
    
    <linearGradient id="mysticalGlow" x1="0%" y1="0%" x2="100%" y2="100%">
      <stop offset="0%" style="stop-color:#FFD700;stop-opacity:0.8" />
      <stop offset="50%" style="stop-color:#FFA500;stop-opacity:0.6" />
      <stop offset="100%" style="stop-color:#FF8C00;stop-opacity:0.8" />
    </linearGradient>
    
    <!-- Glow filter -->
    <filter id="glow" x="-50%" y="-50%" width="200%" height="200%">
      <feGaussianBlur stdDeviation="3" result="coloredBlur"/>
      <feMerge> 
        <feMergeNode in="coloredBlur"/>
        <feMergeNode in="SourceGraphic"/> 
      </feMerge>
    </filter>
    
    <!-- Drop shadow -->
    <filter id="dropshadow" x="-50%" y="-50%" width="200%" height="200%">
      <feDropShadow dx="2" dy="4" stdDeviation="3" flood-color="#FF8C00" flood-opacity="0.3"/>
    </filter>
  </defs>
  
  <!-- Outer mystical circle -->
  <circle cx="50" cy="50" r="45" fill="none" stroke="url(#mysticalGlow)" stroke-width="2" opacity="0.6" filter="url(#glow)">
    <animate attributeName="r" values="43;47;43" dur="3s" repeatCount="indefinite"/>
    <animate attributeName="opacity" values="0.4;0.8;0.4" dur="3s" repeatCount="indefinite"/>
  </circle>
  
  <!-- Inner power circle -->
  <circle cx="50" cy="50" r="35" fill="none" stroke="url(#goldenGradient)" stroke-width="1.5" opacity="0.8">
    <animate attributeName="stroke-dasharray" values="0,220;110,110;220,0" dur="4s" repeatCount="indefinite"/>
  </circle>
  
  <!-- Central Crown Symbol -->
  <g transform="translate(50,50)" filter="url(#dropshadow)">
    <!-- Crown base -->
    <path d="M -15,-5 L -15,5 L 15,5 L 15,-5 Z" fill="url(#goldenGradient)" stroke="#FF8C00" stroke-width="0.5"/>
    
    <!-- Crown peaks -->
    <path d="M -15,-5 L -10,-15 L -5,-8 L 0,-18 L 5,-8 L 10,-15 L 15,-5" 
          fill="url(#goldenGradient)" stroke="#FF8C00" stroke-width="0.5"/>
    
    <!-- Central jewel -->
    <circle cx="0" cy="-12" r="3" fill="#FFDC00" stroke="#FFA500" stroke-width="0.5">
      <animate attributeName="r" values="2.5;3.5;2.5" dur="2s" repeatCount="indefinite"/>
      <animate attributeName="fill" values="#FFDC00;#FFE55C;#FFDC00" dur="2s" repeatCount="indefinite"/>
    </circle>
    
    <!-- Side jewels -->
    <circle cx="-8" cy="-10" r="2" fill="#FFA500" opacity="0.9">
      <animate attributeName="opacity" values="0.7;1;0.7" dur="2.5s" repeatCount="indefinite"/>
    </circle>
    <circle cx="8" cy="-10" r="2" fill="#FFA500" opacity="0.9">
      <animate attributeName="opacity" values="0.7;1;0.7" dur="2.5s" repeatCount="indefinite"/>
    </circle>
    
    <!-- Crown ornaments -->
    <path d="M -12,-12 L -8,-8 M 12,-12 L 8,-8" stroke="#FFD700" stroke-width="1" opacity="0.8"/>
    
    <!-- Base ornaments -->
    <rect x="-12" y="2" width="2" height="6" fill="#FFA500" opacity="0.7"/>
    <rect x="-2" y="2" width="4" height="6" fill="#FFD700" opacity="0.8"/>
    <rect x="10" y="2" width="2" height="6" fill="#FFA500" opacity="0.7"/>
  </g>
  
  <!-- Mystical symbols around the crown -->
  <g opacity="0.6" filter="url(#glow)">
    <!-- Top symbol - Solar cross -->
    <g transform="translate(50,15)">
      <circle cx="0" cy="0" r="4" fill="none" stroke="#FFD700" stroke-width="1"/>
      <path d="M 0,-4 L 0,4 M -4,0 L 4,0" stroke="#FFD700" stroke-width="1"/>
    </g>
    
    <!-- Bottom symbol - Ankh -->
    <g transform="translate(50,85)">
      <circle cx="0" cy="-2" r="3" fill="none" stroke="#FFA500" stroke-width="1"/>
      <path d="M 0,1 L 0,6 M -3,3 L 3,3" stroke="#FFA500" stroke-width="1"/>
    </g>
    
    <!-- Left symbol - Eye of Horus -->
    <g transform="translate(15,50)">
      <path d="M -3,0 Q 0,-3 3,0 Q 0,2 -3,0" fill="#FF8C00" opacity="0.8"/>
      <circle cx="0" cy="-1" r="1" fill="#FFD700"/>
    </g>
    
    <!-- Right symbol - Caduceus -->
    <g transform="translate(85,50)">
      <path d="M 0,-4 L 0,4" stroke="#FFA500" stroke-width="1"/>
      <path d="M -2,-2 Q 0,0 2,2 M 2,-2 Q 0,0 -2,2" stroke="#FFD700" stroke-width="0.8" fill="none"/>
    </g>
  </g>
  
  <!-- Subtle energy rays -->
  <g opacity="0.3">
    <path d="M 50,10 L 50,20" stroke="#FFD700" stroke-width="0.5">
      <animate attributeName="opacity" values="0.2;0.6;0.2" dur="2s" repeatCount="indefinite"/>
    </path>
    <path d="M 50,80 L 50,90" stroke="#FFD700" stroke-width="0.5">
      <animate attributeName="opacity" values="0.2;0.6;0.2" dur="2s" repeatCount="indefinite" begin="0.5s"/>
    </path>
    <path d="M 10,50 L 20,50" stroke="#FFA500" stroke-width="0.5">
      <animate attributeName="opacity" values="0.2;0.6;0.2" dur="2s" repeatCount="indefinite" begin="1s"/>
    </path>
    <path d="M 80,50 L 90,50" stroke="#FFA500" stroke-width="0.5">
      <animate attributeName="opacity" values="0.2;0.6;0.2" dur="2s" repeatCount="indefinite" begin="1.5s"/>
    </path>
  </g>
  
  <!-- Magical sparkles -->
  <g>
    <circle cx="25" cy="25" r="1" fill="#FFD700" opacity="0.8">
      <animate attributeName="opacity" values="0;1;0" dur="3s" repeatCount="indefinite"/>
      <animate attributeName="r" values="0.5;1.5;0.5" dur="3s" repeatCount="indefinite"/>
    </circle>
    <circle cx="75" cy="25" r="1" fill="#FFA500" opacity="0.8">
      <animate attributeName="opacity" values="0;1;0" dur="3s" repeatCount="indefinite" begin="1s"/>
      <animate attributeName="r" values="0.5;1.5;0.5" dur="3s" repeatCount="indefinite" begin="1s"/>
    </circle>
    <circle cx="25" cy="75" r="1" fill="#FF8C00" opacity="0.8">
      <animate attributeName="opacity" values="0;1;0" dur="3s" repeatCount="indefinite" begin="2s"/>
      <animate attributeName="r" values="0.5;1.5;0.5" dur="3s" repeatCount="indefinite" begin="2s"/>
    </circle>
    <circle cx="75" cy="75" r="1" fill="#FFD700" opacity="0.8">
      <animate attributeName="opacity" values="0;1;0" dur="3s" repeatCount="indefinite" begin="0.5s"/>
      <animate attributeName="r" values="0.5;1.5;0.5" dur="3s" repeatCount="indefinite" begin="0.5s"/>
    </circle>
  </g>
</svg>