<svg xmlns="http://www.w3.org/2000/svg" viewBox="0 0 64 64"><circle cx="32" cy="32" r="30" fill="#012" stroke="#036" stroke-width="2"/><g transform="translate(32 32)"><g fill="#06f" stroke="#08f" stroke-width="0.5"><ellipse cy="-18" rx="4" ry="12"/><ellipse cy="-18" rx="4" ry="12" transform="rotate(45)"/><ellipse cy="-18" rx="4" ry="12" transform="rotate(90)"/><ellipse cy="-18" rx="4" ry="12" transform="rotate(135)"/><ellipse cy="-18" rx="4" ry="12" transform="rotate(180)"/><ellipse cy="-18" rx="4" ry="12" transform="rotate(225)"/><ellipse cy="-18" rx="4" ry="12" transform="rotate(270)"/><ellipse cy="-18" rx="4" ry="12" transform="rotate(315)"/></g><circle r="8" fill="#006" stroke="#09f"/><ellipse cy="-2" fill="#0cf" rx="2" ry="4"/><g fill="#cdf" stroke="#fff" stroke-width="0.3" opacity="0.7"><circle cy="-25" r="2"/><path d="M-1-24h2v2h-2z"/><circle cy="25" r="2"/><path d="M-1 24h2v2h-2z"/></g></g><path stroke="#08f" stroke-width="0.5" d="M32 2v6m0 48v6M2 32h6m48 0h6M9.3 9.3l4.3 4.3m36.8 36.8 4.3 4.3m0-45.4-4.3 4.3M13.6 50.4l-4.3 4.3" opacity="0.6"/></svg>