<svg xmlns="http://www.w3.org/2000/svg" width="64" height="64" viewBox="0 0 64 64">
  <!-- Deep blue background circle representing the void/cremation ground -->
  <circle cx="32" cy="32" r="30" fill="#001122" stroke="#003366" stroke-width="2"/>
  
  <!-- Blue lotus petals (Tara's symbol) -->
  <g transform="translate(32,32)">
    <!-- 8 lotus petals arranged in a circle -->
    <g fill="#0066ff" stroke="#0088ff" stroke-width="0.5">
      <ellipse cx="0" cy="-18" rx="4" ry="12" transform="rotate(0)"/>
      <ellipse cx="0" cy="-18" rx="4" ry="12" transform="rotate(45)"/>
      <ellipse cx="0" cy="-18" rx="4" ry="12" transform="rotate(90)"/>
      <ellipse cx="0" cy="-18" rx="4" ry="12" transform="rotate(135)"/>
      <ellipse cx="0" cy="-18" rx="4" ry="12" transform="rotate(180)"/>
      <ellipse cx="0" cy="-18" rx="4" ry="12" transform="rotate(225)"/>
      <ellipse cx="0" cy="-18" rx="4" ry="12" transform="rotate(270)"/>
      <ellipse cx="0" cy="-18" rx="4" ry="12" transform="rotate(315)"/>
    </g>
    
    <!-- Central circle (Tara's face/third eye) -->
    <circle cx="0" cy="0" r="8" fill="#000066" stroke="#0099ff" stroke-width="1"/>
    
    <!-- Third eye symbol -->
    <ellipse cx="0" cy="-2" rx="2" ry="4" fill="#00ccff"/>
    
    <!-- Skull symbols (cremation ground aspect) in the corners -->
    <g fill="#ccddff" stroke="#ffffff" stroke-width="0.3" opacity="0.7">
      <!-- Small skull at top -->
      <circle cx="0" cy="-25" r="2"/>
      <rect x="-1" y="-24" width="2" height="2"/>
      <!-- Small skull at bottom -->
      <circle cx="0" cy="25" r="2"/>
      <rect x="-1" y="24" width="2" height="2"/>
    </g>
  </g>
  
  <!-- Mystical energy rays -->
  <g stroke="#0088ff" stroke-width="0.5" opacity="0.6">
    <line x1="32" y1="2" x2="32" y2="8"/>
    <line x1="32" y1="56" x2="32" y2="62"/>
    <line x1="2" y1="32" x2="8" y2="32"/>
    <line x1="56" y1="32" x2="62" y2="32"/>
    <line x1="9.3" y1="9.3" x2="13.6" y2="13.6"/>
    <line x1="50.4" y1="50.4" x2="54.7" y2="54.7"/>
    <line x1="54.7" y1="9.3" x2="50.4" y2="13.6"/>
    <line x1="13.6" y1="50.4" x2="9.3" y2="54.7"/>
  </g>
</svg>